<mxfile host="app.diagrams.net" agent="Mozilla/5.0 (Windows NT 10.0; Win64; x64) AppleWebKit/537.36 (KHTML, like Gecko) Chrome/132.0.0.0 Safari/537.36" version="26.0.10">
  <diagram id="R2lEEEUBdFMjLlhIrx00" name="Page-1">
    <mxGraphModel dx="1635" dy="614" grid="0" gridSize="10" guides="1" tooltips="1" connect="1" arrows="1" fold="1" page="0" pageScale="1" pageWidth="850" pageHeight="1100" math="0" shadow="0" extFonts="Permanent Marker^https://fonts.googleapis.com/css?family=Permanent+Marker">
      <root>
        <mxCell id="0" />
        <mxCell id="1" parent="0" />
        <mxCell id="2I2bUdlYdio-tkIrYYzk-14" value="PLAYERS" style="shape=table;startSize=31;container=1;collapsible=1;childLayout=tableLayout;fixedRows=1;rowLines=0;fontStyle=1;align=center;resizeLast=1;fontSize=15;" vertex="1" parent="1">
          <mxGeometry x="-19" y="54" width="340" height="421" as="geometry" />
        </mxCell>
        <mxCell id="2I2bUdlYdio-tkIrYYzk-15" value="" style="shape=partialRectangle;collapsible=0;dropTarget=0;pointerEvents=0;fillColor=none;points=[[0,0.5],[1,0.5]];portConstraint=eastwest;top=0;left=0;right=0;bottom=1;" vertex="1" parent="2I2bUdlYdio-tkIrYYzk-14">
          <mxGeometry y="31" width="340" height="30" as="geometry" />
        </mxCell>
        <mxCell id="2I2bUdlYdio-tkIrYYzk-16" value="PK" style="shape=partialRectangle;overflow=hidden;connectable=0;fillColor=none;top=0;left=0;bottom=0;right=0;fontStyle=1;" vertex="1" parent="2I2bUdlYdio-tkIrYYzk-15">
          <mxGeometry width="30" height="30" as="geometry">
            <mxRectangle width="30" height="30" as="alternateBounds" />
          </mxGeometry>
        </mxCell>
        <mxCell id="2I2bUdlYdio-tkIrYYzk-17" value="PLAYER_ID" style="shape=partialRectangle;overflow=hidden;connectable=0;fillColor=none;top=0;left=0;bottom=0;right=0;align=left;spacingLeft=6;fontStyle=5;" vertex="1" parent="2I2bUdlYdio-tkIrYYzk-15">
          <mxGeometry x="30" width="172.75" height="30" as="geometry">
            <mxRectangle width="172.75" height="30" as="alternateBounds" />
          </mxGeometry>
        </mxCell>
        <mxCell id="2I2bUdlYdio-tkIrYYzk-18" value="BIGINT NOT NULL" style="shape=partialRectangle;overflow=hidden;connectable=0;fillColor=none;top=0;left=0;bottom=0;right=0;align=left;spacingLeft=6;fontStyle=5;" vertex="1" parent="2I2bUdlYdio-tkIrYYzk-15">
          <mxGeometry x="202.75" width="137.25" height="30" as="geometry">
            <mxRectangle width="137.25" height="30" as="alternateBounds" />
          </mxGeometry>
        </mxCell>
        <mxCell id="2I2bUdlYdio-tkIrYYzk-19" value="" style="shape=partialRectangle;collapsible=0;dropTarget=0;pointerEvents=0;fillColor=none;points=[[0,0.5],[1,0.5]];portConstraint=eastwest;top=0;left=0;right=0;bottom=0;" vertex="1" parent="2I2bUdlYdio-tkIrYYzk-14">
          <mxGeometry y="61" width="340" height="30" as="geometry" />
        </mxCell>
        <mxCell id="2I2bUdlYdio-tkIrYYzk-20" value="" style="shape=partialRectangle;overflow=hidden;connectable=0;fillColor=none;top=0;left=0;bottom=0;right=0;" vertex="1" parent="2I2bUdlYdio-tkIrYYzk-19">
          <mxGeometry width="30" height="30" as="geometry">
            <mxRectangle width="30" height="30" as="alternateBounds" />
          </mxGeometry>
        </mxCell>
        <mxCell id="2I2bUdlYdio-tkIrYYzk-21" value="PLAYER_NAME" style="shape=partialRectangle;overflow=hidden;connectable=0;fillColor=none;top=0;left=0;bottom=0;right=0;align=left;spacingLeft=6;fontStyle=1" vertex="1" parent="2I2bUdlYdio-tkIrYYzk-19">
          <mxGeometry x="30" width="172.75" height="30" as="geometry">
            <mxRectangle width="172.75" height="30" as="alternateBounds" />
          </mxGeometry>
        </mxCell>
        <mxCell id="2I2bUdlYdio-tkIrYYzk-22" value="VARCHAR(100)" style="shape=partialRectangle;overflow=hidden;connectable=0;fillColor=none;top=0;left=0;bottom=0;right=0;align=left;spacingLeft=6;fontStyle=1" vertex="1" parent="2I2bUdlYdio-tkIrYYzk-19">
          <mxGeometry x="202.75" width="137.25" height="30" as="geometry">
            <mxRectangle width="137.25" height="30" as="alternateBounds" />
          </mxGeometry>
        </mxCell>
        <mxCell id="2I2bUdlYdio-tkIrYYzk-23" value="" style="shape=partialRectangle;collapsible=0;dropTarget=0;pointerEvents=0;fillColor=none;points=[[0,0.5],[1,0.5]];portConstraint=eastwest;top=0;left=0;right=0;bottom=0;" vertex="1" parent="2I2bUdlYdio-tkIrYYzk-14">
          <mxGeometry y="91" width="340" height="30" as="geometry" />
        </mxCell>
        <mxCell id="2I2bUdlYdio-tkIrYYzk-24" value="" style="shape=partialRectangle;overflow=hidden;connectable=0;fillColor=none;top=0;left=0;bottom=0;right=0;" vertex="1" parent="2I2bUdlYdio-tkIrYYzk-23">
          <mxGeometry width="30" height="30" as="geometry">
            <mxRectangle width="30" height="30" as="alternateBounds" />
          </mxGeometry>
        </mxCell>
        <mxCell id="2I2bUdlYdio-tkIrYYzk-25" value="PLAYER_FIRST_NAME" style="shape=partialRectangle;overflow=hidden;connectable=0;fillColor=none;top=0;left=0;bottom=0;right=0;align=left;spacingLeft=6;fontStyle=1" vertex="1" parent="2I2bUdlYdio-tkIrYYzk-23">
          <mxGeometry x="30" width="172.75" height="30" as="geometry">
            <mxRectangle width="172.75" height="30" as="alternateBounds" />
          </mxGeometry>
        </mxCell>
        <mxCell id="2I2bUdlYdio-tkIrYYzk-26" value="VARCHAR(100)" style="shape=partialRectangle;overflow=hidden;connectable=0;fillColor=none;top=0;left=0;bottom=0;right=0;align=left;spacingLeft=6;fontStyle=1" vertex="1" parent="2I2bUdlYdio-tkIrYYzk-23">
          <mxGeometry x="202.75" width="137.25" height="30" as="geometry">
            <mxRectangle width="137.25" height="30" as="alternateBounds" />
          </mxGeometry>
        </mxCell>
        <mxCell id="2I2bUdlYdio-tkIrYYzk-27" style="shape=partialRectangle;collapsible=0;dropTarget=0;pointerEvents=0;fillColor=none;points=[[0,0.5],[1,0.5]];portConstraint=eastwest;top=0;left=0;right=0;bottom=0;" vertex="1" parent="2I2bUdlYdio-tkIrYYzk-14">
          <mxGeometry y="121" width="340" height="30" as="geometry" />
        </mxCell>
        <mxCell id="2I2bUdlYdio-tkIrYYzk-28" style="shape=partialRectangle;overflow=hidden;connectable=0;fillColor=none;top=0;left=0;bottom=0;right=0;" vertex="1" parent="2I2bUdlYdio-tkIrYYzk-27">
          <mxGeometry width="30" height="30" as="geometry">
            <mxRectangle width="30" height="30" as="alternateBounds" />
          </mxGeometry>
        </mxCell>
        <mxCell id="2I2bUdlYdio-tkIrYYzk-29" value="PLAYER_LAST_NAME" style="shape=partialRectangle;overflow=hidden;connectable=0;fillColor=none;top=0;left=0;bottom=0;right=0;align=left;spacingLeft=6;fontStyle=1" vertex="1" parent="2I2bUdlYdio-tkIrYYzk-27">
          <mxGeometry x="30" width="172.75" height="30" as="geometry">
            <mxRectangle width="172.75" height="30" as="alternateBounds" />
          </mxGeometry>
        </mxCell>
        <mxCell id="2I2bUdlYdio-tkIrYYzk-30" value="VARCHAR(100)" style="shape=partialRectangle;overflow=hidden;connectable=0;fillColor=none;top=0;left=0;bottom=0;right=0;align=left;spacingLeft=6;fontStyle=1" vertex="1" parent="2I2bUdlYdio-tkIrYYzk-27">
          <mxGeometry x="202.75" width="137.25" height="30" as="geometry">
            <mxRectangle width="137.25" height="30" as="alternateBounds" />
          </mxGeometry>
        </mxCell>
        <mxCell id="2I2bUdlYdio-tkIrYYzk-31" style="shape=partialRectangle;collapsible=0;dropTarget=0;pointerEvents=0;fillColor=none;points=[[0,0.5],[1,0.5]];portConstraint=eastwest;top=0;left=0;right=0;bottom=0;" vertex="1" parent="2I2bUdlYdio-tkIrYYzk-14">
          <mxGeometry y="151" width="340" height="30" as="geometry" />
        </mxCell>
        <mxCell id="2I2bUdlYdio-tkIrYYzk-32" style="shape=partialRectangle;overflow=hidden;connectable=0;fillColor=none;top=0;left=0;bottom=0;right=0;" vertex="1" parent="2I2bUdlYdio-tkIrYYzk-31">
          <mxGeometry width="30" height="30" as="geometry">
            <mxRectangle width="30" height="30" as="alternateBounds" />
          </mxGeometry>
        </mxCell>
        <mxCell id="2I2bUdlYdio-tkIrYYzk-33" value="PLAYER_DOB" style="shape=partialRectangle;overflow=hidden;connectable=0;fillColor=none;top=0;left=0;bottom=0;right=0;align=left;spacingLeft=6;fontStyle=1" vertex="1" parent="2I2bUdlYdio-tkIrYYzk-31">
          <mxGeometry x="30" width="172.75" height="30" as="geometry">
            <mxRectangle width="172.75" height="30" as="alternateBounds" />
          </mxGeometry>
        </mxCell>
        <mxCell id="2I2bUdlYdio-tkIrYYzk-34" value="DATE" style="shape=partialRectangle;overflow=hidden;connectable=0;fillColor=none;top=0;left=0;bottom=0;right=0;align=left;spacingLeft=6;fontStyle=1" vertex="1" parent="2I2bUdlYdio-tkIrYYzk-31">
          <mxGeometry x="202.75" width="137.25" height="30" as="geometry">
            <mxRectangle width="137.25" height="30" as="alternateBounds" />
          </mxGeometry>
        </mxCell>
        <mxCell id="2I2bUdlYdio-tkIrYYzk-35" style="shape=partialRectangle;collapsible=0;dropTarget=0;pointerEvents=0;fillColor=none;points=[[0,0.5],[1,0.5]];portConstraint=eastwest;top=0;left=0;right=0;bottom=0;" vertex="1" parent="2I2bUdlYdio-tkIrYYzk-14">
          <mxGeometry y="181" width="340" height="30" as="geometry" />
        </mxCell>
        <mxCell id="2I2bUdlYdio-tkIrYYzk-36" style="shape=partialRectangle;overflow=hidden;connectable=0;fillColor=none;top=0;left=0;bottom=0;right=0;" vertex="1" parent="2I2bUdlYdio-tkIrYYzk-35">
          <mxGeometry width="30" height="30" as="geometry">
            <mxRectangle width="30" height="30" as="alternateBounds" />
          </mxGeometry>
        </mxCell>
        <mxCell id="2I2bUdlYdio-tkIrYYzk-37" value="PLAYER_BIRTH_PLACE" style="shape=partialRectangle;overflow=hidden;connectable=0;fillColor=none;top=0;left=0;bottom=0;right=0;align=left;spacingLeft=6;fontStyle=1" vertex="1" parent="2I2bUdlYdio-tkIrYYzk-35">
          <mxGeometry x="30" width="172.75" height="30" as="geometry">
            <mxRectangle width="172.75" height="30" as="alternateBounds" />
          </mxGeometry>
        </mxCell>
        <mxCell id="2I2bUdlYdio-tkIrYYzk-38" value="VARCHAR" style="shape=partialRectangle;overflow=hidden;connectable=0;fillColor=none;top=0;left=0;bottom=0;right=0;align=left;spacingLeft=6;fontStyle=1" vertex="1" parent="2I2bUdlYdio-tkIrYYzk-35">
          <mxGeometry x="202.75" width="137.25" height="30" as="geometry">
            <mxRectangle width="137.25" height="30" as="alternateBounds" />
          </mxGeometry>
        </mxCell>
        <mxCell id="2I2bUdlYdio-tkIrYYzk-39" style="shape=partialRectangle;collapsible=0;dropTarget=0;pointerEvents=0;fillColor=none;points=[[0,0.5],[1,0.5]];portConstraint=eastwest;top=0;left=0;right=0;bottom=0;" vertex="1" parent="2I2bUdlYdio-tkIrYYzk-14">
          <mxGeometry y="211" width="340" height="30" as="geometry" />
        </mxCell>
        <mxCell id="2I2bUdlYdio-tkIrYYzk-40" style="shape=partialRectangle;overflow=hidden;connectable=0;fillColor=none;top=0;left=0;bottom=0;right=0;" vertex="1" parent="2I2bUdlYdio-tkIrYYzk-39">
          <mxGeometry width="30" height="30" as="geometry">
            <mxRectangle width="30" height="30" as="alternateBounds" />
          </mxGeometry>
        </mxCell>
        <mxCell id="2I2bUdlYdio-tkIrYYzk-41" value="PLAYER_BIRTH_COUNTRY" style="shape=partialRectangle;overflow=hidden;connectable=0;fillColor=none;top=0;left=0;bottom=0;right=0;align=left;spacingLeft=6;fontStyle=1" vertex="1" parent="2I2bUdlYdio-tkIrYYzk-39">
          <mxGeometry x="30" width="172.75" height="30" as="geometry">
            <mxRectangle width="172.75" height="30" as="alternateBounds" />
          </mxGeometry>
        </mxCell>
        <mxCell id="2I2bUdlYdio-tkIrYYzk-42" value="VARCHAR(100)" style="shape=partialRectangle;overflow=hidden;connectable=0;fillColor=none;top=0;left=0;bottom=0;right=0;align=left;spacingLeft=6;fontStyle=1" vertex="1" parent="2I2bUdlYdio-tkIrYYzk-39">
          <mxGeometry x="202.75" width="137.25" height="30" as="geometry">
            <mxRectangle width="137.25" height="30" as="alternateBounds" />
          </mxGeometry>
        </mxCell>
        <mxCell id="2I2bUdlYdio-tkIrYYzk-43" style="shape=partialRectangle;collapsible=0;dropTarget=0;pointerEvents=0;fillColor=none;points=[[0,0.5],[1,0.5]];portConstraint=eastwest;top=0;left=0;right=0;bottom=0;" vertex="1" parent="2I2bUdlYdio-tkIrYYzk-14">
          <mxGeometry y="241" width="340" height="30" as="geometry" />
        </mxCell>
        <mxCell id="2I2bUdlYdio-tkIrYYzk-44" style="shape=partialRectangle;overflow=hidden;connectable=0;fillColor=none;top=0;left=0;bottom=0;right=0;" vertex="1" parent="2I2bUdlYdio-tkIrYYzk-43">
          <mxGeometry width="30" height="30" as="geometry">
            <mxRectangle width="30" height="30" as="alternateBounds" />
          </mxGeometry>
        </mxCell>
        <mxCell id="2I2bUdlYdio-tkIrYYzk-45" value="PLAYER_NATIONALITY" style="shape=partialRectangle;overflow=hidden;connectable=0;fillColor=none;top=0;left=0;bottom=0;right=0;align=left;spacingLeft=6;fontStyle=1" vertex="1" parent="2I2bUdlYdio-tkIrYYzk-43">
          <mxGeometry x="30" width="172.75" height="30" as="geometry">
            <mxRectangle width="172.75" height="30" as="alternateBounds" />
          </mxGeometry>
        </mxCell>
        <mxCell id="2I2bUdlYdio-tkIrYYzk-46" value="VARCHAR(100)" style="shape=partialRectangle;overflow=hidden;connectable=0;fillColor=none;top=0;left=0;bottom=0;right=0;align=left;spacingLeft=6;fontStyle=1" vertex="1" parent="2I2bUdlYdio-tkIrYYzk-43">
          <mxGeometry x="202.75" width="137.25" height="30" as="geometry">
            <mxRectangle width="137.25" height="30" as="alternateBounds" />
          </mxGeometry>
        </mxCell>
        <mxCell id="2I2bUdlYdio-tkIrYYzk-88" value="" style="shape=tableRow;horizontal=0;startSize=0;swimlaneHead=0;swimlaneBody=0;fillColor=none;collapsible=0;dropTarget=0;points=[[0,0.5],[1,0.5]];portConstraint=eastwest;top=0;left=0;right=0;bottom=0;" vertex="1" parent="2I2bUdlYdio-tkIrYYzk-14">
          <mxGeometry y="271" width="340" height="30" as="geometry" />
        </mxCell>
        <mxCell id="2I2bUdlYdio-tkIrYYzk-89" value="" style="shape=partialRectangle;connectable=0;fillColor=none;top=0;left=0;bottom=0;right=0;editable=1;overflow=hidden;" vertex="1" parent="2I2bUdlYdio-tkIrYYzk-88">
          <mxGeometry width="30" height="30" as="geometry">
            <mxRectangle width="30" height="30" as="alternateBounds" />
          </mxGeometry>
        </mxCell>
        <mxCell id="2I2bUdlYdio-tkIrYYzk-90" value="PLAYER_HEIGHT" style="shape=partialRectangle;connectable=0;fillColor=none;top=0;left=0;bottom=0;right=0;align=left;spacingLeft=6;overflow=hidden;fontStyle=1" vertex="1" parent="2I2bUdlYdio-tkIrYYzk-88">
          <mxGeometry x="30" width="172.75" height="30" as="geometry">
            <mxRectangle width="172.75" height="30" as="alternateBounds" />
          </mxGeometry>
        </mxCell>
        <mxCell id="2I2bUdlYdio-tkIrYYzk-91" value="VARCHAR(100)" style="shape=partialRectangle;connectable=0;fillColor=none;top=0;left=0;bottom=0;right=0;align=left;spacingLeft=6;overflow=hidden;fontStyle=1" vertex="1" parent="2I2bUdlYdio-tkIrYYzk-88">
          <mxGeometry x="202.75" width="137.25" height="30" as="geometry">
            <mxRectangle width="137.25" height="30" as="alternateBounds" />
          </mxGeometry>
        </mxCell>
        <mxCell id="2I2bUdlYdio-tkIrYYzk-100" value="" style="shape=tableRow;horizontal=0;startSize=0;swimlaneHead=0;swimlaneBody=0;fillColor=none;collapsible=0;dropTarget=0;points=[[0,0.5],[1,0.5]];portConstraint=eastwest;top=0;left=0;right=0;bottom=0;" vertex="1" parent="2I2bUdlYdio-tkIrYYzk-14">
          <mxGeometry y="301" width="340" height="30" as="geometry" />
        </mxCell>
        <mxCell id="2I2bUdlYdio-tkIrYYzk-101" value="" style="shape=partialRectangle;connectable=0;fillColor=none;top=0;left=0;bottom=0;right=0;editable=1;overflow=hidden;" vertex="1" parent="2I2bUdlYdio-tkIrYYzk-100">
          <mxGeometry width="30" height="30" as="geometry">
            <mxRectangle width="30" height="30" as="alternateBounds" />
          </mxGeometry>
        </mxCell>
        <mxCell id="2I2bUdlYdio-tkIrYYzk-102" value="PLAYER_WEIGHT" style="shape=partialRectangle;connectable=0;fillColor=none;top=0;left=0;bottom=0;right=0;align=left;spacingLeft=6;overflow=hidden;fontStyle=1" vertex="1" parent="2I2bUdlYdio-tkIrYYzk-100">
          <mxGeometry x="30" width="172.75" height="30" as="geometry">
            <mxRectangle width="172.75" height="30" as="alternateBounds" />
          </mxGeometry>
        </mxCell>
        <mxCell id="2I2bUdlYdio-tkIrYYzk-103" value="VARCHAR(100)" style="shape=partialRectangle;connectable=0;fillColor=none;top=0;left=0;bottom=0;right=0;align=left;spacingLeft=6;overflow=hidden;fontStyle=1" vertex="1" parent="2I2bUdlYdio-tkIrYYzk-100">
          <mxGeometry x="202.75" width="137.25" height="30" as="geometry">
            <mxRectangle width="137.25" height="30" as="alternateBounds" />
          </mxGeometry>
        </mxCell>
        <mxCell id="2I2bUdlYdio-tkIrYYzk-96" value="" style="shape=tableRow;horizontal=0;startSize=0;swimlaneHead=0;swimlaneBody=0;fillColor=none;collapsible=0;dropTarget=0;points=[[0,0.5],[1,0.5]];portConstraint=eastwest;top=0;left=0;right=0;bottom=0;" vertex="1" parent="2I2bUdlYdio-tkIrYYzk-14">
          <mxGeometry y="331" width="340" height="30" as="geometry" />
        </mxCell>
        <mxCell id="2I2bUdlYdio-tkIrYYzk-97" value="" style="shape=partialRectangle;connectable=0;fillColor=none;top=0;left=0;bottom=0;right=0;editable=1;overflow=hidden;" vertex="1" parent="2I2bUdlYdio-tkIrYYzk-96">
          <mxGeometry width="30" height="30" as="geometry">
            <mxRectangle width="30" height="30" as="alternateBounds" />
          </mxGeometry>
        </mxCell>
        <mxCell id="2I2bUdlYdio-tkIrYYzk-98" value="PLAYER_NUMBER" style="shape=partialRectangle;connectable=0;fillColor=none;top=0;left=0;bottom=0;right=0;align=left;spacingLeft=6;overflow=hidden;fontStyle=1" vertex="1" parent="2I2bUdlYdio-tkIrYYzk-96">
          <mxGeometry x="30" width="172.75" height="30" as="geometry">
            <mxRectangle width="172.75" height="30" as="alternateBounds" />
          </mxGeometry>
        </mxCell>
        <mxCell id="2I2bUdlYdio-tkIrYYzk-99" value="INT" style="shape=partialRectangle;connectable=0;fillColor=none;top=0;left=0;bottom=0;right=0;align=left;spacingLeft=6;overflow=hidden;fontStyle=1" vertex="1" parent="2I2bUdlYdio-tkIrYYzk-96">
          <mxGeometry x="202.75" width="137.25" height="30" as="geometry">
            <mxRectangle width="137.25" height="30" as="alternateBounds" />
          </mxGeometry>
        </mxCell>
        <mxCell id="2I2bUdlYdio-tkIrYYzk-104" value="" style="shape=tableRow;horizontal=0;startSize=0;swimlaneHead=0;swimlaneBody=0;fillColor=none;collapsible=0;dropTarget=0;points=[[0,0.5],[1,0.5]];portConstraint=eastwest;top=0;left=0;right=0;bottom=0;" vertex="1" parent="2I2bUdlYdio-tkIrYYzk-14">
          <mxGeometry y="361" width="340" height="30" as="geometry" />
        </mxCell>
        <mxCell id="2I2bUdlYdio-tkIrYYzk-105" value="" style="shape=partialRectangle;connectable=0;fillColor=none;top=0;left=0;bottom=0;right=0;editable=1;overflow=hidden;" vertex="1" parent="2I2bUdlYdio-tkIrYYzk-104">
          <mxGeometry width="30" height="30" as="geometry">
            <mxRectangle width="30" height="30" as="alternateBounds" />
          </mxGeometry>
        </mxCell>
        <mxCell id="2I2bUdlYdio-tkIrYYzk-106" value="PLAYER_POSITION" style="shape=partialRectangle;connectable=0;fillColor=none;top=0;left=0;bottom=0;right=0;align=left;spacingLeft=6;overflow=hidden;fontStyle=1" vertex="1" parent="2I2bUdlYdio-tkIrYYzk-104">
          <mxGeometry x="30" width="172.75" height="30" as="geometry">
            <mxRectangle width="172.75" height="30" as="alternateBounds" />
          </mxGeometry>
        </mxCell>
        <mxCell id="2I2bUdlYdio-tkIrYYzk-107" value="VARCHAR(100)" style="shape=partialRectangle;connectable=0;fillColor=none;top=0;left=0;bottom=0;right=0;align=left;spacingLeft=6;overflow=hidden;fontStyle=1" vertex="1" parent="2I2bUdlYdio-tkIrYYzk-104">
          <mxGeometry x="202.75" width="137.25" height="30" as="geometry">
            <mxRectangle width="137.25" height="30" as="alternateBounds" />
          </mxGeometry>
        </mxCell>
        <mxCell id="2I2bUdlYdio-tkIrYYzk-108" value="" style="shape=tableRow;horizontal=0;startSize=0;swimlaneHead=0;swimlaneBody=0;fillColor=none;collapsible=0;dropTarget=0;points=[[0,0.5],[1,0.5]];portConstraint=eastwest;top=0;left=0;right=0;bottom=0;" vertex="1" parent="2I2bUdlYdio-tkIrYYzk-14">
          <mxGeometry y="391" width="340" height="30" as="geometry" />
        </mxCell>
        <mxCell id="2I2bUdlYdio-tkIrYYzk-109" value="" style="shape=partialRectangle;connectable=0;fillColor=none;top=0;left=0;bottom=0;right=0;editable=1;overflow=hidden;" vertex="1" parent="2I2bUdlYdio-tkIrYYzk-108">
          <mxGeometry width="30" height="30" as="geometry">
            <mxRectangle width="30" height="30" as="alternateBounds" />
          </mxGeometry>
        </mxCell>
        <mxCell id="2I2bUdlYdio-tkIrYYzk-110" value="PLAYER_PHOTO" style="shape=partialRectangle;connectable=0;fillColor=none;top=0;left=0;bottom=0;right=0;align=left;spacingLeft=6;overflow=hidden;fontStyle=1" vertex="1" parent="2I2bUdlYdio-tkIrYYzk-108">
          <mxGeometry x="30" width="172.75" height="30" as="geometry">
            <mxRectangle width="172.75" height="30" as="alternateBounds" />
          </mxGeometry>
        </mxCell>
        <mxCell id="2I2bUdlYdio-tkIrYYzk-111" value="VARCHAR(1000)" style="shape=partialRectangle;connectable=0;fillColor=none;top=0;left=0;bottom=0;right=0;align=left;spacingLeft=6;overflow=hidden;fontStyle=1" vertex="1" parent="2I2bUdlYdio-tkIrYYzk-108">
          <mxGeometry x="202.75" width="137.25" height="30" as="geometry">
            <mxRectangle width="137.25" height="30" as="alternateBounds" />
          </mxGeometry>
        </mxCell>
        <mxCell id="2I2bUdlYdio-tkIrYYzk-47" value="CE_SHOWTIMES" style="shape=table;startSize=31;container=1;collapsible=1;childLayout=tableLayout;fixedRows=1;rowLines=0;fontStyle=1;align=center;resizeLast=1;fontSize=15;" vertex="1" parent="1">
          <mxGeometry x="868" y="154" width="306" height="271" as="geometry" />
        </mxCell>
        <mxCell id="2I2bUdlYdio-tkIrYYzk-48" value="" style="shape=partialRectangle;collapsible=0;dropTarget=0;pointerEvents=0;fillColor=none;points=[[0,0.5],[1,0.5]];portConstraint=eastwest;top=0;left=0;right=0;bottom=1;" vertex="1" parent="2I2bUdlYdio-tkIrYYzk-47">
          <mxGeometry y="31" width="306" height="30" as="geometry" />
        </mxCell>
        <mxCell id="2I2bUdlYdio-tkIrYYzk-49" value="PK" style="shape=partialRectangle;overflow=hidden;connectable=0;fillColor=none;top=0;left=0;bottom=0;right=0;fontStyle=1;" vertex="1" parent="2I2bUdlYdio-tkIrYYzk-48">
          <mxGeometry width="30" height="30" as="geometry">
            <mxRectangle width="30" height="30" as="alternateBounds" />
          </mxGeometry>
        </mxCell>
        <mxCell id="2I2bUdlYdio-tkIrYYzk-50" value="SHOWTIME_ID" style="shape=partialRectangle;overflow=hidden;connectable=0;fillColor=none;top=0;left=0;bottom=0;right=0;align=left;spacingLeft=6;fontStyle=5;" vertex="1" parent="2I2bUdlYdio-tkIrYYzk-48">
          <mxGeometry x="30" width="157.3571428571429" height="30" as="geometry">
            <mxRectangle width="157.3571428571429" height="30" as="alternateBounds" />
          </mxGeometry>
        </mxCell>
        <mxCell id="2I2bUdlYdio-tkIrYYzk-51" value="BIGINT NOT NULL" style="shape=partialRectangle;overflow=hidden;connectable=0;fillColor=none;top=0;left=0;bottom=0;right=0;align=left;spacingLeft=6;fontStyle=5;" vertex="1" parent="2I2bUdlYdio-tkIrYYzk-48">
          <mxGeometry x="187.3571428571429" width="118.64285714285711" height="30" as="geometry">
            <mxRectangle width="118.64285714285711" height="30" as="alternateBounds" />
          </mxGeometry>
        </mxCell>
        <mxCell id="2I2bUdlYdio-tkIrYYzk-52" value="" style="shape=partialRectangle;collapsible=0;dropTarget=0;pointerEvents=0;fillColor=none;points=[[0,0.5],[1,0.5]];portConstraint=eastwest;top=0;left=0;right=0;bottom=0;" vertex="1" parent="2I2bUdlYdio-tkIrYYzk-47">
          <mxGeometry y="61" width="306" height="30" as="geometry" />
        </mxCell>
        <mxCell id="2I2bUdlYdio-tkIrYYzk-53" value="" style="shape=partialRectangle;overflow=hidden;connectable=0;fillColor=none;top=0;left=0;bottom=0;right=0;" vertex="1" parent="2I2bUdlYdio-tkIrYYzk-52">
          <mxGeometry width="30" height="30" as="geometry">
            <mxRectangle width="30" height="30" as="alternateBounds" />
          </mxGeometry>
        </mxCell>
        <mxCell id="2I2bUdlYdio-tkIrYYzk-54" value="FILM_START_DT" style="shape=partialRectangle;overflow=hidden;connectable=0;fillColor=none;top=0;left=0;bottom=0;right=0;align=left;spacingLeft=6;fontStyle=1" vertex="1" parent="2I2bUdlYdio-tkIrYYzk-52">
          <mxGeometry x="30" width="157.3571428571429" height="30" as="geometry">
            <mxRectangle width="157.3571428571429" height="30" as="alternateBounds" />
          </mxGeometry>
        </mxCell>
        <mxCell id="2I2bUdlYdio-tkIrYYzk-55" value="VARCHAR(100)" style="shape=partialRectangle;overflow=hidden;connectable=0;fillColor=none;top=0;left=0;bottom=0;right=0;align=left;spacingLeft=6;fontStyle=1" vertex="1" parent="2I2bUdlYdio-tkIrYYzk-52">
          <mxGeometry x="187.3571428571429" width="118.64285714285711" height="30" as="geometry">
            <mxRectangle width="118.64285714285711" height="30" as="alternateBounds" />
          </mxGeometry>
        </mxCell>
        <mxCell id="2I2bUdlYdio-tkIrYYzk-56" value="" style="shape=partialRectangle;collapsible=0;dropTarget=0;pointerEvents=0;fillColor=none;points=[[0,0.5],[1,0.5]];portConstraint=eastwest;top=0;left=0;right=0;bottom=0;" vertex="1" parent="2I2bUdlYdio-tkIrYYzk-47">
          <mxGeometry y="91" width="306" height="30" as="geometry" />
        </mxCell>
        <mxCell id="2I2bUdlYdio-tkIrYYzk-57" value="" style="shape=partialRectangle;overflow=hidden;connectable=0;fillColor=none;top=0;left=0;bottom=0;right=0;" vertex="1" parent="2I2bUdlYdio-tkIrYYzk-56">
          <mxGeometry width="30" height="30" as="geometry">
            <mxRectangle width="30" height="30" as="alternateBounds" />
          </mxGeometry>
        </mxCell>
        <mxCell id="2I2bUdlYdio-tkIrYYzk-58" value="FILM_END_DT" style="shape=partialRectangle;overflow=hidden;connectable=0;fillColor=none;top=0;left=0;bottom=0;right=0;align=left;spacingLeft=6;fontStyle=1" vertex="1" parent="2I2bUdlYdio-tkIrYYzk-56">
          <mxGeometry x="30" width="157.3571428571429" height="30" as="geometry">
            <mxRectangle width="157.3571428571429" height="30" as="alternateBounds" />
          </mxGeometry>
        </mxCell>
        <mxCell id="2I2bUdlYdio-tkIrYYzk-59" value="VARCHAR(100)" style="shape=partialRectangle;overflow=hidden;connectable=0;fillColor=none;top=0;left=0;bottom=0;right=0;align=left;spacingLeft=6;fontStyle=1" vertex="1" parent="2I2bUdlYdio-tkIrYYzk-56">
          <mxGeometry x="187.3571428571429" width="118.64285714285711" height="30" as="geometry">
            <mxRectangle width="118.64285714285711" height="30" as="alternateBounds" />
          </mxGeometry>
        </mxCell>
        <mxCell id="2I2bUdlYdio-tkIrYYzk-60" style="shape=partialRectangle;collapsible=0;dropTarget=0;pointerEvents=0;fillColor=none;points=[[0,0.5],[1,0.5]];portConstraint=eastwest;top=0;left=0;right=0;bottom=0;" vertex="1" parent="2I2bUdlYdio-tkIrYYzk-47">
          <mxGeometry y="121" width="306" height="30" as="geometry" />
        </mxCell>
        <mxCell id="2I2bUdlYdio-tkIrYYzk-61" style="shape=partialRectangle;overflow=hidden;connectable=0;fillColor=none;top=0;left=0;bottom=0;right=0;" vertex="1" parent="2I2bUdlYdio-tkIrYYzk-60">
          <mxGeometry width="30" height="30" as="geometry">
            <mxRectangle width="30" height="30" as="alternateBounds" />
          </mxGeometry>
        </mxCell>
        <mxCell id="2I2bUdlYdio-tkIrYYzk-62" value="TA_INSERT_DT" style="shape=partialRectangle;overflow=hidden;connectable=0;fillColor=none;top=0;left=0;bottom=0;right=0;align=left;spacingLeft=6;fontStyle=1" vertex="1" parent="2I2bUdlYdio-tkIrYYzk-60">
          <mxGeometry x="30" width="157.3571428571429" height="30" as="geometry">
            <mxRectangle width="157.3571428571429" height="30" as="alternateBounds" />
          </mxGeometry>
        </mxCell>
        <mxCell id="2I2bUdlYdio-tkIrYYzk-63" value="DATE" style="shape=partialRectangle;overflow=hidden;connectable=0;fillColor=none;top=0;left=0;bottom=0;right=0;align=left;spacingLeft=6;fontStyle=1" vertex="1" parent="2I2bUdlYdio-tkIrYYzk-60">
          <mxGeometry x="187.3571428571429" width="118.64285714285711" height="30" as="geometry">
            <mxRectangle width="118.64285714285711" height="30" as="alternateBounds" />
          </mxGeometry>
        </mxCell>
        <mxCell id="2I2bUdlYdio-tkIrYYzk-64" style="shape=partialRectangle;collapsible=0;dropTarget=0;pointerEvents=0;fillColor=none;points=[[0,0.5],[1,0.5]];portConstraint=eastwest;top=0;left=0;right=0;bottom=0;" vertex="1" parent="2I2bUdlYdio-tkIrYYzk-47">
          <mxGeometry y="151" width="306" height="30" as="geometry" />
        </mxCell>
        <mxCell id="2I2bUdlYdio-tkIrYYzk-65" style="shape=partialRectangle;overflow=hidden;connectable=0;fillColor=none;top=0;left=0;bottom=0;right=0;" vertex="1" parent="2I2bUdlYdio-tkIrYYzk-64">
          <mxGeometry width="30" height="30" as="geometry">
            <mxRectangle width="30" height="30" as="alternateBounds" />
          </mxGeometry>
        </mxCell>
        <mxCell id="2I2bUdlYdio-tkIrYYzk-66" value="TA_UPDATE_DT" style="shape=partialRectangle;overflow=hidden;connectable=0;fillColor=none;top=0;left=0;bottom=0;right=0;align=left;spacingLeft=6;fontStyle=1" vertex="1" parent="2I2bUdlYdio-tkIrYYzk-64">
          <mxGeometry x="30" width="157.3571428571429" height="30" as="geometry">
            <mxRectangle width="157.3571428571429" height="30" as="alternateBounds" />
          </mxGeometry>
        </mxCell>
        <mxCell id="2I2bUdlYdio-tkIrYYzk-67" value="DATE" style="shape=partialRectangle;overflow=hidden;connectable=0;fillColor=none;top=0;left=0;bottom=0;right=0;align=left;spacingLeft=6;fontStyle=1" vertex="1" parent="2I2bUdlYdio-tkIrYYzk-64">
          <mxGeometry x="187.3571428571429" width="118.64285714285711" height="30" as="geometry">
            <mxRectangle width="118.64285714285711" height="30" as="alternateBounds" />
          </mxGeometry>
        </mxCell>
        <mxCell id="2I2bUdlYdio-tkIrYYzk-68" style="shape=partialRectangle;collapsible=0;dropTarget=0;pointerEvents=0;fillColor=none;points=[[0,0.5],[1,0.5]];portConstraint=eastwest;top=0;left=0;right=0;bottom=0;" vertex="1" parent="2I2bUdlYdio-tkIrYYzk-47">
          <mxGeometry y="181" width="306" height="30" as="geometry" />
        </mxCell>
        <mxCell id="2I2bUdlYdio-tkIrYYzk-69" style="shape=partialRectangle;overflow=hidden;connectable=0;fillColor=none;top=0;left=0;bottom=0;right=0;" vertex="1" parent="2I2bUdlYdio-tkIrYYzk-68">
          <mxGeometry width="30" height="30" as="geometry">
            <mxRectangle width="30" height="30" as="alternateBounds" />
          </mxGeometry>
        </mxCell>
        <mxCell id="2I2bUdlYdio-tkIrYYzk-70" value="SHOWTIME_SRC_ID" style="shape=partialRectangle;overflow=hidden;connectable=0;fillColor=none;top=0;left=0;bottom=0;right=0;align=left;spacingLeft=6;fontStyle=1" vertex="1" parent="2I2bUdlYdio-tkIrYYzk-68">
          <mxGeometry x="30" width="157.3571428571429" height="30" as="geometry">
            <mxRectangle width="157.3571428571429" height="30" as="alternateBounds" />
          </mxGeometry>
        </mxCell>
        <mxCell id="2I2bUdlYdio-tkIrYYzk-71" value="VARCHAR" style="shape=partialRectangle;overflow=hidden;connectable=0;fillColor=none;top=0;left=0;bottom=0;right=0;align=left;spacingLeft=6;fontStyle=1" vertex="1" parent="2I2bUdlYdio-tkIrYYzk-68">
          <mxGeometry x="187.3571428571429" width="118.64285714285711" height="30" as="geometry">
            <mxRectangle width="118.64285714285711" height="30" as="alternateBounds" />
          </mxGeometry>
        </mxCell>
        <mxCell id="2I2bUdlYdio-tkIrYYzk-72" style="shape=partialRectangle;collapsible=0;dropTarget=0;pointerEvents=0;fillColor=none;points=[[0,0.5],[1,0.5]];portConstraint=eastwest;top=0;left=0;right=0;bottom=0;" vertex="1" parent="2I2bUdlYdio-tkIrYYzk-47">
          <mxGeometry y="211" width="306" height="30" as="geometry" />
        </mxCell>
        <mxCell id="2I2bUdlYdio-tkIrYYzk-73" style="shape=partialRectangle;overflow=hidden;connectable=0;fillColor=none;top=0;left=0;bottom=0;right=0;" vertex="1" parent="2I2bUdlYdio-tkIrYYzk-72">
          <mxGeometry width="30" height="30" as="geometry">
            <mxRectangle width="30" height="30" as="alternateBounds" />
          </mxGeometry>
        </mxCell>
        <mxCell id="2I2bUdlYdio-tkIrYYzk-74" value="SOURCE_SYSTEM" style="shape=partialRectangle;overflow=hidden;connectable=0;fillColor=none;top=0;left=0;bottom=0;right=0;align=left;spacingLeft=6;fontStyle=1" vertex="1" parent="2I2bUdlYdio-tkIrYYzk-72">
          <mxGeometry x="30" width="157.3571428571429" height="30" as="geometry">
            <mxRectangle width="157.3571428571429" height="30" as="alternateBounds" />
          </mxGeometry>
        </mxCell>
        <mxCell id="2I2bUdlYdio-tkIrYYzk-75" value="VARCHAR" style="shape=partialRectangle;overflow=hidden;connectable=0;fillColor=none;top=0;left=0;bottom=0;right=0;align=left;spacingLeft=6;fontStyle=1" vertex="1" parent="2I2bUdlYdio-tkIrYYzk-72">
          <mxGeometry x="187.3571428571429" width="118.64285714285711" height="30" as="geometry">
            <mxRectangle width="118.64285714285711" height="30" as="alternateBounds" />
          </mxGeometry>
        </mxCell>
        <mxCell id="2I2bUdlYdio-tkIrYYzk-76" style="shape=partialRectangle;collapsible=0;dropTarget=0;pointerEvents=0;fillColor=none;points=[[0,0.5],[1,0.5]];portConstraint=eastwest;top=0;left=0;right=0;bottom=0;" vertex="1" parent="2I2bUdlYdio-tkIrYYzk-47">
          <mxGeometry y="241" width="306" height="30" as="geometry" />
        </mxCell>
        <mxCell id="2I2bUdlYdio-tkIrYYzk-77" style="shape=partialRectangle;overflow=hidden;connectable=0;fillColor=none;top=0;left=0;bottom=0;right=0;" vertex="1" parent="2I2bUdlYdio-tkIrYYzk-76">
          <mxGeometry width="30" height="30" as="geometry">
            <mxRectangle width="30" height="30" as="alternateBounds" />
          </mxGeometry>
        </mxCell>
        <mxCell id="2I2bUdlYdio-tkIrYYzk-78" value="SOURCE_ENTITY" style="shape=partialRectangle;overflow=hidden;connectable=0;fillColor=none;top=0;left=0;bottom=0;right=0;align=left;spacingLeft=6;fontStyle=1" vertex="1" parent="2I2bUdlYdio-tkIrYYzk-76">
          <mxGeometry x="30" width="157.3571428571429" height="30" as="geometry">
            <mxRectangle width="157.3571428571429" height="30" as="alternateBounds" />
          </mxGeometry>
        </mxCell>
        <mxCell id="2I2bUdlYdio-tkIrYYzk-79" value="VARCHAR" style="shape=partialRectangle;overflow=hidden;connectable=0;fillColor=none;top=0;left=0;bottom=0;right=0;align=left;spacingLeft=6;fontStyle=1" vertex="1" parent="2I2bUdlYdio-tkIrYYzk-76">
          <mxGeometry x="187.3571428571429" width="118.64285714285711" height="30" as="geometry">
            <mxRectangle width="118.64285714285711" height="30" as="alternateBounds" />
          </mxGeometry>
        </mxCell>
        <mxCell id="2I2bUdlYdio-tkIrYYzk-112" value="ALL_TIME_STATS" style="shape=table;startSize=31;container=1;collapsible=1;childLayout=tableLayout;fixedRows=1;rowLines=0;fontStyle=1;align=center;resizeLast=1;fontSize=15;" vertex="1" parent="1">
          <mxGeometry x="390" y="105" width="440" height="271" as="geometry" />
        </mxCell>
        <mxCell id="2I2bUdlYdio-tkIrYYzk-113" value="" style="shape=partialRectangle;collapsible=0;dropTarget=0;pointerEvents=0;fillColor=none;points=[[0,0.5],[1,0.5]];portConstraint=eastwest;top=0;left=0;right=0;bottom=1;" vertex="1" parent="2I2bUdlYdio-tkIrYYzk-112">
          <mxGeometry y="31" width="440" height="30" as="geometry" />
        </mxCell>
        <mxCell id="2I2bUdlYdio-tkIrYYzk-114" value="PK" style="shape=partialRectangle;overflow=hidden;connectable=0;fillColor=none;top=0;left=0;bottom=0;right=0;fontStyle=1;" vertex="1" parent="2I2bUdlYdio-tkIrYYzk-113">
          <mxGeometry width="30" height="30" as="geometry">
            <mxRectangle width="30" height="30" as="alternateBounds" />
          </mxGeometry>
        </mxCell>
        <mxCell id="2I2bUdlYdio-tkIrYYzk-115" value="ALL_TIME_STATS_ID" style="shape=partialRectangle;overflow=hidden;connectable=0;fillColor=none;top=0;left=0;bottom=0;right=0;align=left;spacingLeft=6;fontStyle=5;" vertex="1" parent="2I2bUdlYdio-tkIrYYzk-113">
          <mxGeometry x="30" width="246.75" height="30" as="geometry">
            <mxRectangle width="246.75" height="30" as="alternateBounds" />
          </mxGeometry>
        </mxCell>
        <mxCell id="2I2bUdlYdio-tkIrYYzk-116" value="BIGINT NOT NULL" style="shape=partialRectangle;overflow=hidden;connectable=0;fillColor=none;top=0;left=0;bottom=0;right=0;align=left;spacingLeft=6;fontStyle=5;" vertex="1" parent="2I2bUdlYdio-tkIrYYzk-113">
          <mxGeometry x="276.75" width="163.25" height="30" as="geometry">
            <mxRectangle width="163.25" height="30" as="alternateBounds" />
          </mxGeometry>
        </mxCell>
        <mxCell id="2I2bUdlYdio-tkIrYYzk-117" value="" style="shape=partialRectangle;collapsible=0;dropTarget=0;pointerEvents=0;fillColor=none;points=[[0,0.5],[1,0.5]];portConstraint=eastwest;top=0;left=0;right=0;bottom=0;" vertex="1" parent="2I2bUdlYdio-tkIrYYzk-112">
          <mxGeometry y="61" width="440" height="30" as="geometry" />
        </mxCell>
        <mxCell id="2I2bUdlYdio-tkIrYYzk-118" value="FK" style="shape=partialRectangle;overflow=hidden;connectable=0;fillColor=none;top=0;left=0;bottom=0;right=0;fontStyle=1" vertex="1" parent="2I2bUdlYdio-tkIrYYzk-117">
          <mxGeometry width="30" height="30" as="geometry">
            <mxRectangle width="30" height="30" as="alternateBounds" />
          </mxGeometry>
        </mxCell>
        <mxCell id="2I2bUdlYdio-tkIrYYzk-119" value="ALL_TIME_STATS_PLAYER_FK" style="shape=partialRectangle;overflow=hidden;connectable=0;fillColor=none;top=0;left=0;bottom=0;right=0;align=left;spacingLeft=6;fontStyle=1" vertex="1" parent="2I2bUdlYdio-tkIrYYzk-117">
          <mxGeometry x="30" width="246.75" height="30" as="geometry">
            <mxRectangle width="246.75" height="30" as="alternateBounds" />
          </mxGeometry>
        </mxCell>
        <mxCell id="2I2bUdlYdio-tkIrYYzk-120" value="BIGINT NOT NULL" style="shape=partialRectangle;overflow=hidden;connectable=0;fillColor=none;top=0;left=0;bottom=0;right=0;align=left;spacingLeft=6;fontStyle=1" vertex="1" parent="2I2bUdlYdio-tkIrYYzk-117">
          <mxGeometry x="276.75" width="163.25" height="30" as="geometry">
            <mxRectangle width="163.25" height="30" as="alternateBounds" />
          </mxGeometry>
        </mxCell>
        <mxCell id="2I2bUdlYdio-tkIrYYzk-121" value="" style="shape=partialRectangle;collapsible=0;dropTarget=0;pointerEvents=0;fillColor=none;points=[[0,0.5],[1,0.5]];portConstraint=eastwest;top=0;left=0;right=0;bottom=0;" vertex="1" parent="2I2bUdlYdio-tkIrYYzk-112">
          <mxGeometry y="91" width="440" height="30" as="geometry" />
        </mxCell>
        <mxCell id="2I2bUdlYdio-tkIrYYzk-122" value="" style="shape=partialRectangle;overflow=hidden;connectable=0;fillColor=none;top=0;left=0;bottom=0;right=0;" vertex="1" parent="2I2bUdlYdio-tkIrYYzk-121">
          <mxGeometry width="30" height="30" as="geometry">
            <mxRectangle width="30" height="30" as="alternateBounds" />
          </mxGeometry>
        </mxCell>
        <mxCell id="2I2bUdlYdio-tkIrYYzk-123" value="ALL_TIME_STATS_GOALS" style="shape=partialRectangle;overflow=hidden;connectable=0;fillColor=none;top=0;left=0;bottom=0;right=0;align=left;spacingLeft=6;fontStyle=1" vertex="1" parent="2I2bUdlYdio-tkIrYYzk-121">
          <mxGeometry x="30" width="246.75" height="30" as="geometry">
            <mxRectangle width="246.75" height="30" as="alternateBounds" />
          </mxGeometry>
        </mxCell>
        <mxCell id="2I2bUdlYdio-tkIrYYzk-124" value="VARCHAR(100)" style="shape=partialRectangle;overflow=hidden;connectable=0;fillColor=none;top=0;left=0;bottom=0;right=0;align=left;spacingLeft=6;fontStyle=1" vertex="1" parent="2I2bUdlYdio-tkIrYYzk-121">
          <mxGeometry x="276.75" width="163.25" height="30" as="geometry">
            <mxRectangle width="163.25" height="30" as="alternateBounds" />
          </mxGeometry>
        </mxCell>
        <mxCell id="2I2bUdlYdio-tkIrYYzk-125" style="shape=partialRectangle;collapsible=0;dropTarget=0;pointerEvents=0;fillColor=none;points=[[0,0.5],[1,0.5]];portConstraint=eastwest;top=0;left=0;right=0;bottom=0;" vertex="1" parent="2I2bUdlYdio-tkIrYYzk-112">
          <mxGeometry y="121" width="440" height="30" as="geometry" />
        </mxCell>
        <mxCell id="2I2bUdlYdio-tkIrYYzk-126" style="shape=partialRectangle;overflow=hidden;connectable=0;fillColor=none;top=0;left=0;bottom=0;right=0;" vertex="1" parent="2I2bUdlYdio-tkIrYYzk-125">
          <mxGeometry width="30" height="30" as="geometry">
            <mxRectangle width="30" height="30" as="alternateBounds" />
          </mxGeometry>
        </mxCell>
        <mxCell id="2I2bUdlYdio-tkIrYYzk-127" value="ALL_TIME_STATS_ASSISTS" style="shape=partialRectangle;overflow=hidden;connectable=0;fillColor=none;top=0;left=0;bottom=0;right=0;align=left;spacingLeft=6;fontStyle=1" vertex="1" parent="2I2bUdlYdio-tkIrYYzk-125">
          <mxGeometry x="30" width="246.75" height="30" as="geometry">
            <mxRectangle width="246.75" height="30" as="alternateBounds" />
          </mxGeometry>
        </mxCell>
        <mxCell id="2I2bUdlYdio-tkIrYYzk-128" value="DATE" style="shape=partialRectangle;overflow=hidden;connectable=0;fillColor=none;top=0;left=0;bottom=0;right=0;align=left;spacingLeft=6;fontStyle=1" vertex="1" parent="2I2bUdlYdio-tkIrYYzk-125">
          <mxGeometry x="276.75" width="163.25" height="30" as="geometry">
            <mxRectangle width="163.25" height="30" as="alternateBounds" />
          </mxGeometry>
        </mxCell>
        <mxCell id="2I2bUdlYdio-tkIrYYzk-129" style="shape=partialRectangle;collapsible=0;dropTarget=0;pointerEvents=0;fillColor=none;points=[[0,0.5],[1,0.5]];portConstraint=eastwest;top=0;left=0;right=0;bottom=0;" vertex="1" parent="2I2bUdlYdio-tkIrYYzk-112">
          <mxGeometry y="151" width="440" height="30" as="geometry" />
        </mxCell>
        <mxCell id="2I2bUdlYdio-tkIrYYzk-130" style="shape=partialRectangle;overflow=hidden;connectable=0;fillColor=none;top=0;left=0;bottom=0;right=0;" vertex="1" parent="2I2bUdlYdio-tkIrYYzk-129">
          <mxGeometry width="30" height="30" as="geometry">
            <mxRectangle width="30" height="30" as="alternateBounds" />
          </mxGeometry>
        </mxCell>
        <mxCell id="2I2bUdlYdio-tkIrYYzk-131" value="ALL_TIME_STATS_APPS" style="shape=partialRectangle;overflow=hidden;connectable=0;fillColor=none;top=0;left=0;bottom=0;right=0;align=left;spacingLeft=6;fontStyle=1" vertex="1" parent="2I2bUdlYdio-tkIrYYzk-129">
          <mxGeometry x="30" width="246.75" height="30" as="geometry">
            <mxRectangle width="246.75" height="30" as="alternateBounds" />
          </mxGeometry>
        </mxCell>
        <mxCell id="2I2bUdlYdio-tkIrYYzk-132" value="DATE" style="shape=partialRectangle;overflow=hidden;connectable=0;fillColor=none;top=0;left=0;bottom=0;right=0;align=left;spacingLeft=6;fontStyle=1" vertex="1" parent="2I2bUdlYdio-tkIrYYzk-129">
          <mxGeometry x="276.75" width="163.25" height="30" as="geometry">
            <mxRectangle width="163.25" height="30" as="alternateBounds" />
          </mxGeometry>
        </mxCell>
        <mxCell id="2I2bUdlYdio-tkIrYYzk-133" style="shape=partialRectangle;collapsible=0;dropTarget=0;pointerEvents=0;fillColor=none;points=[[0,0.5],[1,0.5]];portConstraint=eastwest;top=0;left=0;right=0;bottom=0;" vertex="1" parent="2I2bUdlYdio-tkIrYYzk-112">
          <mxGeometry y="181" width="440" height="30" as="geometry" />
        </mxCell>
        <mxCell id="2I2bUdlYdio-tkIrYYzk-134" style="shape=partialRectangle;overflow=hidden;connectable=0;fillColor=none;top=0;left=0;bottom=0;right=0;" vertex="1" parent="2I2bUdlYdio-tkIrYYzk-133">
          <mxGeometry width="30" height="30" as="geometry">
            <mxRectangle width="30" height="30" as="alternateBounds" />
          </mxGeometry>
        </mxCell>
        <mxCell id="2I2bUdlYdio-tkIrYYzk-135" value="ALL_TIME_STATS_MINUTES_PLAYED" style="shape=partialRectangle;overflow=hidden;connectable=0;fillColor=none;top=0;left=0;bottom=0;right=0;align=left;spacingLeft=6;fontStyle=1" vertex="1" parent="2I2bUdlYdio-tkIrYYzk-133">
          <mxGeometry x="30" width="246.75" height="30" as="geometry">
            <mxRectangle width="246.75" height="30" as="alternateBounds" />
          </mxGeometry>
        </mxCell>
        <mxCell id="2I2bUdlYdio-tkIrYYzk-136" value="VARCHAR" style="shape=partialRectangle;overflow=hidden;connectable=0;fillColor=none;top=0;left=0;bottom=0;right=0;align=left;spacingLeft=6;fontStyle=1" vertex="1" parent="2I2bUdlYdio-tkIrYYzk-133">
          <mxGeometry x="276.75" width="163.25" height="30" as="geometry">
            <mxRectangle width="163.25" height="30" as="alternateBounds" />
          </mxGeometry>
        </mxCell>
        <mxCell id="2I2bUdlYdio-tkIrYYzk-137" style="shape=partialRectangle;collapsible=0;dropTarget=0;pointerEvents=0;fillColor=none;points=[[0,0.5],[1,0.5]];portConstraint=eastwest;top=0;left=0;right=0;bottom=0;" vertex="1" parent="2I2bUdlYdio-tkIrYYzk-112">
          <mxGeometry y="211" width="440" height="30" as="geometry" />
        </mxCell>
        <mxCell id="2I2bUdlYdio-tkIrYYzk-138" style="shape=partialRectangle;overflow=hidden;connectable=0;fillColor=none;top=0;left=0;bottom=0;right=0;" vertex="1" parent="2I2bUdlYdio-tkIrYYzk-137">
          <mxGeometry width="30" height="30" as="geometry">
            <mxRectangle width="30" height="30" as="alternateBounds" />
          </mxGeometry>
        </mxCell>
        <mxCell id="2I2bUdlYdio-tkIrYYzk-139" value="ALL_TIME_STATS_COMPETITION_TYPE" style="shape=partialRectangle;overflow=hidden;connectable=0;fillColor=none;top=0;left=0;bottom=0;right=0;align=left;spacingLeft=6;fontStyle=1" vertex="1" parent="2I2bUdlYdio-tkIrYYzk-137">
          <mxGeometry x="30" width="246.75" height="30" as="geometry">
            <mxRectangle width="246.75" height="30" as="alternateBounds" />
          </mxGeometry>
        </mxCell>
        <mxCell id="2I2bUdlYdio-tkIrYYzk-140" value="ENUM(League, UCL...)" style="shape=partialRectangle;overflow=hidden;connectable=0;fillColor=none;top=0;left=0;bottom=0;right=0;align=left;spacingLeft=6;fontStyle=1" vertex="1" parent="2I2bUdlYdio-tkIrYYzk-137">
          <mxGeometry x="276.75" width="163.25" height="30" as="geometry">
            <mxRectangle width="163.25" height="30" as="alternateBounds" />
          </mxGeometry>
        </mxCell>
        <mxCell id="2I2bUdlYdio-tkIrYYzk-141" style="shape=partialRectangle;collapsible=0;dropTarget=0;pointerEvents=0;fillColor=none;points=[[0,0.5],[1,0.5]];portConstraint=eastwest;top=0;left=0;right=0;bottom=0;" vertex="1" parent="2I2bUdlYdio-tkIrYYzk-112">
          <mxGeometry y="241" width="440" height="30" as="geometry" />
        </mxCell>
        <mxCell id="2I2bUdlYdio-tkIrYYzk-142" style="shape=partialRectangle;overflow=hidden;connectable=0;fillColor=none;top=0;left=0;bottom=0;right=0;" vertex="1" parent="2I2bUdlYdio-tkIrYYzk-141">
          <mxGeometry width="30" height="30" as="geometry">
            <mxRectangle width="30" height="30" as="alternateBounds" />
          </mxGeometry>
        </mxCell>
        <mxCell id="2I2bUdlYdio-tkIrYYzk-143" value="ALL_TIME_STATS_" style="shape=partialRectangle;overflow=hidden;connectable=0;fillColor=none;top=0;left=0;bottom=0;right=0;align=left;spacingLeft=6;fontStyle=1" vertex="1" parent="2I2bUdlYdio-tkIrYYzk-141">
          <mxGeometry x="30" width="246.75" height="30" as="geometry">
            <mxRectangle width="246.75" height="30" as="alternateBounds" />
          </mxGeometry>
        </mxCell>
        <mxCell id="2I2bUdlYdio-tkIrYYzk-144" value="VARCHAR" style="shape=partialRectangle;overflow=hidden;connectable=0;fillColor=none;top=0;left=0;bottom=0;right=0;align=left;spacingLeft=6;fontStyle=1" vertex="1" parent="2I2bUdlYdio-tkIrYYzk-141">
          <mxGeometry x="276.75" width="163.25" height="30" as="geometry">
            <mxRectangle width="163.25" height="30" as="alternateBounds" />
          </mxGeometry>
        </mxCell>
        <mxCell id="2I2bUdlYdio-tkIrYYzk-145" value="" style="edgeStyle=entityRelationEdgeStyle;fontSize=12;html=1;endArrow=ERmandOne;startArrow=ERmandOne;rounded=0;exitX=1;exitY=0.5;exitDx=0;exitDy=0;entryX=0;entryY=0.5;entryDx=0;entryDy=0;" edge="1" parent="1" source="2I2bUdlYdio-tkIrYYzk-15" target="2I2bUdlYdio-tkIrYYzk-117">
          <mxGeometry width="100" height="100" relative="1" as="geometry">
            <mxPoint x="456" y="559" as="sourcePoint" />
            <mxPoint x="556" y="459" as="targetPoint" />
          </mxGeometry>
        </mxCell>
      </root>
    </mxGraphModel>
  </diagram>
</mxfile>
